HIERARCHY
ROOT Hips
{
	OFFSET -3.958830 18.904000 13.208200
	CHANNELS 6 Xposition Yposition Zposition Zrotation Yrotation Xrotation 
	JOINT LHipJoint
	{
		OFFSET 0.000000 0.000000 0.000000
		CHANNELS 3 Zrotation Yrotation Xrotation
		JOINT LeftUpLeg
		{
			OFFSET 1.800000 -1.400000 0.085000
			CHANNELS 3 Zrotation Yrotation Xrotation
			JOINT LeftLeg
			{
				OFFSET 2.215000 -6.000000 0.000000
				CHANNELS 3 Zrotation Yrotation Xrotation
				JOINT LeftFoot
				{
					OFFSET 2.500000 -6.900000 0.000000
					CHANNELS 3 Zrotation Yrotation Xrotation
					JOINT LeftToeBase
					{
						OFFSET 0.200000 -0.500000 1.950000
						CHANNELS 3 Zrotation Yrotation Xrotation
						End Site
						{
							OFFSET 0.000000 0.000000 0.000000
						}
					}
				}
			}
		}
	}
	JOINT RHipJoint
	{
		OFFSET 0.000000 0.000000 0.000000
		CHANNELS 3 Zrotation Yrotation Xrotation
		JOINT RightUpLeg
		{
			OFFSET -1.800000 -1.400000 0.085000
			CHANNELS 3 Zrotation Yrotation Xrotation
			JOINT RightLeg
			{
				OFFSET -2.215000 -6.000000 0.000000
				CHANNELS 3 Zrotation Yrotation Xrotation
				JOINT RightFoot
				{
					OFFSET -2.500000 -6.900000 0.000000
					CHANNELS 3 Zrotation Yrotation Xrotation
					JOINT RightToeBase
					{
						OFFSET -0.200000 -0.500000 1.950000
						CHANNELS 3 Zrotation Yrotation Xrotation
						End Site
						{
							OFFSET 0.000000 0.000000 0.000000
						}
					}
				}
			}
		}
	}
	JOINT LowerBack
	{
		OFFSET 0.000000 0.000000 0.000000
		CHANNELS 3 Zrotation Yrotation Xrotation
		JOINT Spine
		{
			OFFSET -0.087000 1.940000 -0.288900
			CHANNELS 3 Zrotation Yrotation Xrotation
			JOINT Spine1
			{
				OFFSET 0.000000 1.950000 0.060000
				CHANNELS 3 Zrotation Yrotation Xrotation
				JOINT Neck
				{
					OFFSET 0.000000 0.000000 0.000000
					CHANNELS 3 Zrotation Yrotation Xrotation
					JOINT Neck1
					{
						OFFSET 0.000000 1.600000 0.340000
						CHANNELS 3 Zrotation Yrotation Xrotation
						JOINT Head
						{
							OFFSET 0.000000 1.667000 -0.240000
							CHANNELS 3 Zrotation Yrotation Xrotation
							End Site
							{
								OFFSET 0.000000 0.000000 0.000000
							}
						}
					}
				}
				JOINT LeftShoulder
				{
					OFFSET 0.000000 0.000000 0.000000
					CHANNELS 3 Zrotation Yrotation Xrotation
					JOINT LeftArm
					{
						OFFSET 2.700000 1.550000 -0.730000
						CHANNELS 3 Zrotation Yrotation Xrotation
						JOINT LeftForeArm
						{
							OFFSET 5.450000 0.000000 0.000000
							CHANNELS 3 Zrotation Yrotation Xrotation
							JOINT LeftHand
							{
								OFFSET 3.450000 0.000000 0.000000
								CHANNELS 3 Zrotation Yrotation Xrotation
								JOINT LeftHandIndex1
								{
									OFFSET 0.750000 0.000000 0.000000
									CHANNELS 3 Zrotation Yrotation Xrotation
									End Site
									{
										OFFSET 0.000000 0.000000 0.000000
									}
								}
							}
						}
					}
				}
				JOINT RightShoulder
				{
					OFFSET 0.000000 0.000000 0.000000
					CHANNELS 3 Zrotation Yrotation Xrotation
					JOINT RightArm
					{
						OFFSET -2.700000 1.550000 -0.730000
						CHANNELS 3 Zrotation Yrotation Xrotation
						JOINT RightForeArm
						{
							OFFSET -5.450000 0.000000 0.000000
							CHANNELS 3 Zrotation Yrotation Xrotation
							JOINT RightHand
							{
								OFFSET -3.450000 0.000000 0.000000
								CHANNELS 3 Zrotation Yrotation Xrotation
								JOINT RightHandIndex1
								{
									OFFSET -0.750000 0.000000 0.000000
									CHANNELS 3 Zrotation Yrotation Xrotation
									End Site
									{
										OFFSET 0.000000 0.000000 0.000000
									}
								}
							}
						}
					}
				}
			}
		}
	}
}
MOTION
Frames: 7
Frame Time: 0.016667
-0.825030 16.486230 -2.446570 1.856534 2.881192 0.296386 -15.373873 10.590783 5.631301 24.298702 -1.936085 -34.652714 -38.999255 22.568386 27.727290 1.204979 10.571867 0.662783 0.277810 0.158990 0.445810 18.502308 -7.876485 3.741947 -33.601129 4.987440 -23.711595 39.032359 -18.190317 24.591564 -1.119624 -7.958281 1.337749 0.063670 -0.290220 0.075940 -3.707431 -2.784992 -9.696091 16.412553 -5.483955 25.119410 -4.847429 -1.602805 -3.174199 3.212843 -7.652951 -8.373110 -19.221357 17.346394 49.980244 -12.231790 15.510260 -5.670610 -35.956384 -3.377090 1.761942 -45.759179 13.001361 -8.572998 -15.853878 -6.768231 -1.226976 -3.528985 2.874812 0.367330 -0.114810 0.243300 -0.078070 28.887371 9.253126 2.610847 45.188297 5.296327 -8.511723 39.192312 37.214544 9.812123 2.508490 -1.523455 -0.017720 -0.026770 -0.084010 -0.255330 
-0.814180 16.493970 -2.460310 1.691934 3.195796 0.274459 -15.386108 10.609253 5.664534 24.356059 -1.922013 -35.012834 -38.706144 22.758528 28.270766 1.217730 10.628127 0.644565 0.275800 0.155520 0.447490 18.485674 -7.865695 3.737294 -33.469362 5.057855 -23.517045 39.050606 -17.965394 24.226582 -1.109416 -7.901937 1.354883 0.059010 -0.295250 0.075420 -3.667216 -2.834112 -9.730386 16.457430 -5.508379 25.379205 -4.564672 -1.527965 -3.571974 3.296776 -7.389792 -8.314072 -18.498183 16.805939 50.623509 -12.142800 15.272660 -5.401130 -36.609984 -3.480813 1.779924 -45.868502 13.527164 -8.684941 -15.933109 -6.468584 -1.284977 -3.519233 2.873273 0.366210 -0.117850 0.244960 -0.079870 29.398024 9.323601 2.532660 44.692626 5.318203 -8.513647 38.033623 36.990975 9.459878 2.507255 -1.516501 -0.014700 -0.032080 -0.086340 -0.255100 
-0.801200 16.505150 -2.467750 1.534949 3.543039 0.243462 -15.408239 10.699720 5.667143 24.181563 -1.880462 -35.203606 -37.867597 22.796762 28.919657 1.211910 10.636109 0.639878 0.272870 0.150500 0.443530 18.444505 -7.887277 3.715458 -33.010557 5.191298 -23.203984 38.656808 -17.592769 23.934807 -1.085240 -7.803440 1.391412 0.053740 -0.296460 0.072670 -3.578300 -2.938480 -9.750920 16.228517 -5.292853 25.440713 -3.534093 -1.297861 -4.051999 3.229659 -7.081516 -8.158382 -17.790770 16.001297 51.786286 -11.961560 14.675940 -4.861680 -37.169491 -3.224338 1.741166 -46.449618 14.193102 -9.011301 -16.888283 -6.329484 -1.382692 -3.510377 2.868858 0.365540 -0.120180 0.244210 -0.077890 30.176227 9.186200 2.287756 44.149394 5.527763 -8.531472 34.954681 36.375152 8.499331 2.498330 -1.490504 -0.012960 -0.033070 -0.088020 -0.252400 
-0.774720 16.546140 -2.482010 1.529453 3.832852 0.370224 -15.397854 10.844424 5.595822 23.288162 -2.075338 -35.209112 -36.251369 22.427057 29.619525 1.173111 10.517191 0.673135 0.269650 0.142430 0.436190 18.416667 -8.017492 3.664328 -32.188576 5.263183 -23.138627 37.081795 -16.992713 24.020296 -1.026644 -7.616725 1.454156 0.046320 -0.294540 0.066540 -3.554075 -2.944837 -9.699583 16.093582 -5.224854 25.093959 -2.756406 -1.299432 -4.112709 3.092281 -6.986391 -8.307337 -17.659042 15.534976 53.161230 -11.445820 13.913890 -4.064340 -36.898589 -3.202299 2.091837 -47.988734 15.188407 -9.932782 -18.385956 -7.228976 -1.432268 -3.495816 2.867998 0.368220 -0.127740 0.242560 -0.074230 30.280942 9.431114 2.118131 44.503596 6.322007 -8.398642 31.632399 35.151236 7.337593 2.502798 -1.449313 -0.012350 -0.029470 -0.087990 -0.246670 
-0.742150 16.608090 -2.497960 1.330370 4.253694 0.403897 -15.364249 11.045044 5.507014 22.108980 -2.410407 -35.120630 -34.027900 21.621453 30.237047 1.095632 10.278995 0.738290 0.259770 0.126570 0.429250 18.386560 -8.279877 3.530038 -30.493040 5.208775 -22.589342 34.344798 -15.869799 23.807791 -0.919585 -7.249577 1.575874 0.034530 -0.293840 0.064990 -3.565785 -2.855174 -9.601490 16.190182 -5.048580 24.669219 -2.162975 -1.169445 -3.912379 3.072127 -6.486520 -8.354020 -16.367973 14.375587 54.631213 -11.134100 13.147320 -3.302370 -36.451883 -3.174699 2.394972 -49.381991 15.974297 -11.003703 -20.294799 -8.620702 -1.417035 -3.487612 2.872393 0.369050 -0.129120 0.239160 -0.076780 29.933245 9.384162 1.951252 45.191183 6.910846 -8.365468 29.508231 34.460363 6.625352 2.506040 -1.421295 -0.011950 -0.032430 -0.083630 -0.245210 
-0.710260 16.690230 -2.517860 1.258015 4.377457 0.561812 -15.306001 11.286176 5.378187 20.708173 -2.714368 -34.763315 -31.348838 20.593026 30.789107 1.008941 9.946179 0.843441 0.248880 0.115300 0.402510 18.369766 -8.648918 3.348228 -28.073087 5.132673 -22.596030 30.330842 -14.528983 24.223202 -0.774140 -6.759388 1.752342 0.025590 -0.272980 0.058520 -3.633540 -2.647223 -9.437373 16.214073 -4.782733 24.125940 -1.754317 -1.001390 -3.599791 2.773678 -6.350085 -8.434316 -15.947468 13.355244 55.171913 -10.113820 11.779760 -2.318470 -35.512989 -3.037977 2.771100 -50.312396 16.703867 -12.087203 -23.032694 -10.326291 -1.315830 -3.478479 2.895621 0.354810 -0.126730 0.223360 -0.066360 29.603237 9.469822 1.844555 46.094645 7.464403 -8.367752 27.230316 33.654143 5.822448 2.510329 -1.400627 -0.009690 -0.026500 -0.080150 -0.227430 
-0.671690 16.785510 -2.536910 1.377418 4.251194 0.641298 -15.236084 11.623413 5.190693 18.731207 -3.123199 -34.167770 -27.779791 19.233035 31.608858 0.890543 9.486826 0.996125 0.235580 0.101480 0.370990 18.343334 -9.140059 3.111081 -25.094574 4.881181 -22.515544 25.186208 -12.846622 24.747959 -0.598794 -6.102800 1.995726 0.017870 -0.239960 0.052590 -3.703966 -2.399478 -9.205698 15.936979 -4.277125 23.513955 -1.314417 -0.682824 -3.176274 2.400171 -6.254541 -8.443684 -15.639145 12.400158 55.529989 -8.887800 10.321300 -1.345270 -34.310451 -2.705581 3.044926 -51.129204 16.991314 -12.982953 -25.652626 -12.156855 -1.079134 -3.481093 2.915145 0.339280 -0.119750 0.204330 -0.050730 29.154716 9.417073 1.676275 46.753900 8.119174 -8.162554 25.134985 32.208079 4.991414 2.518649 -1.375247 -0.012200 -0.012310 -0.075200 -0.205830 
